<?xml version="1.0" standalone="no"?>
<!DOCTYPE svg PUBLIC "-//W3C//DTD SVG 20010904//EN"
 "http://www.w3.org/TR/2001/REC-SVG-20010904/DTD/svg10.dtd">
<svg version="1.0" xmlns="http://www.w3.org/2000/svg"
 width="204.000000pt" height="192.000000pt" viewBox="0 0 204.000000 192.000000"
 preserveAspectRatio="xMidYMid meet">

<g transform="translate(0.000000,192.000000) scale(0.100000,-0.100000)"
fill="#000000" stroke="none">
<path d="M777 1614 c-242 -44 -434 -184 -532 -389 -24 -49 -50 -115 -59 -145
-40 -131 -57 -357 -39 -520 l6 -62 53 6 c85 10 79 -5 79 204 0 163 3 199 24
282 51 208 153 346 311 423 115 57 184 71 347 71 l141 1 6 35 c10 62 7 98 -10
104 -29 11 -248 4 -327 -10z"/>
<path d="M100 1516 c0 -29 3 -68 6 -85 6 -31 7 -31 69 -31 68 0 76 7 90 84 6
29 3 39 -19 60 -21 22 -34 26 -86 26 l-60 0 0 -54z"/>
<path d="M597 1191 c-57 -30 -67 -39 -62 -56 4 -11 9 -119 12 -240 2 -121 9
-234 14 -252 14 -45 59 -79 123 -94 114 -25 172 12 242 157 54 111 84 144 129
144 46 0 85 -47 85 -100 0 -37 -2 -39 -37 -46 -20 -4 -53 -2 -73 3 -19 6 -41
12 -49 14 -10 3 -19 -17 -33 -70 -10 -41 -17 -80 -14 -87 14 -36 172 -42 236
-9 38 20 44 46 37 159 -9 149 -59 248 -134 262 -69 13 -108 -23 -183 -165 -47
-87 -103 -120 -175 -100 l-35 10 0 254 c0 140 -3 254 -7 254 -5 -1 -39 -18
-76 -38z"/>
<path d="M1812 1203 c-40 -4 -44 -7 -68 -55 -14 -28 -22 -54 -17 -59 5 -5 64
-3 132 3 115 11 124 13 132 36 29 75 -8 90 -179 75z"/>
<path d="M1865 930 l-48 -49 31 -69 c18 -38 32 -73 32 -79 0 -15 -33 -23 -131
-30 l-87 -6 -7 41 c-10 62 -58 154 -99 190 -30 26 -45 32 -83 32 -39 0 -50 -5
-79 -35 -66 -71 -105 -252 -70 -327 32 -66 112 -84 213 -49 29 10 55 16 58 13
3 -3 5 -22 5 -42 0 -35 -3 -39 -48 -58 -56 -24 -112 -37 -199 -47 -57 -6 -63
-9 -72 -36 -9 -26 -7 -31 22 -53 18 -14 45 -29 60 -35 39 -15 121 -14 160 3
66 28 120 106 135 199 l7 42 82 6 c45 3 103 12 129 19 43 12 49 18 73 69 23
49 26 68 26 156 -1 81 -5 109 -23 148 -12 26 -25 47 -30 47 -4 0 -30 -22 -57
-50z m-375 -105 c29 -15 86 -117 75 -135 -7 -12 -108 -24 -134 -15 -12 3 -28
17 -37 30 -20 30 -4 97 29 120 27 19 31 19 67 0z"/>
</g>
</svg>
